<?xml version="1.0"?>
<svg version="1.1" xmlns="http://www.w3.org/2000/svg" width="400" height="60" style=""><path fill="#325ec7" d="M15.84765625,31.572265625l0-1.052734375l0-1.080078125q0.013671875-1.09375,0.0888671875-2.0986328125t0.2119140625-1.6748046875q0.08203125-0.369140625,0.4921875-0.451171875t0.7109375-0.08203125q0.560546875,0,0.8271484375,0.13671875t0.3486328125,0.3896484375t0.068359375,0.6015625t-0.013671875,0.7998046875q0,0.642578125-0.02734375,1.791015625t-0.041015625,2.54296875l0,0.697265625q0,1.052734375,0.02734375,2.173828125q0.041015625,1.50390625,0.1572265625,2.8779296875t0.3212890625,2.474609375t0.57421875,1.6884765625q0.587890625-0.533203125,1.17578125-1.4970703125t1.12109375-2.1669921875t1.0185546875-2.5361328125t0.8818359375-2.6044921875t0.6767578125-2.392578125t0.4169921875-1.900390625q0.21875-1.12109375,0.2939453125-2.283203125t0.0751953125-2.583984375q0.423828125-0.505859375,0.65625-0.6357421875t0.73828125-0.1298828125q0.24609375,0,0.4990234375,0.041015625t0.4853515625,0.19140625l0.19140625,0.30078125l0,0.341796875q0,2.48828125-0.2392578125,5.0517578125t-0.505859375,5.154296875t-0.505859375,5.1953125t-0.2392578125,5.1748046875q0,0.396484375,0.0341796875,0.8408203125t0.1435546875,0.8408203125l-0.0546875,0.1640625q-0.19140625,0.314453125-0.62890625,0.396484375t-0.751953125,0.08203125q-0.669921875,0-1.0048828125-0.1982421875t-0.4443359375-0.546875t-0.095703125-0.806640625t0.013671875-0.9912109375q0-1.845703125,0.1640625-3.7529296875t0.396484375-3.7529296875q-0.21875,0.642578125-0.51953125,1.5517578125t-0.7041015625,1.818359375t-0.9365234375,1.66796875t-1.17578125,1.0869140625l0.02734375-0.02734375l-0.109375,0.0546875l0.02734375,0q-0.396484375,0.21875-0.7314453125,0.2939453125t-0.7861328125,0.0751953125q-0.90234375,0-1.4970703125-0.533203125t-0.9638671875-1.3740234375t-0.546875-1.88671875t-0.2529296875-2.0986328125t-0.0751953125-2.0029296875l0-1.5654296875q0-0.751953125-0.013671875-1.791015625z M20.71484375,42.455078125q0.02734375,0,0.02734375-0.02734375l0.02734375,0q-0.02734375,0.02734375-0.0546875,0.02734375z M30.63611328125,38.96875l0-0.396484375q0-0.4921875,0.02734375-0.9296875q0.02734375-0.615234375,0.02734375-1.01171875q0-0.21875,0.02734375-0.4990234375t0.13671875-0.4443359375q0.13671875-0.13671875,0.3212890625-0.2802734375t0.4033203125-0.1435546875q0.697265625,0,1.09375,0.1572265625t0.423828125,0.6494140625l0.0546875,0.423828125q0.24609375-0.587890625,0.65625-1.4560546875t0.9501953125-1.654296875t1.216796875-1.33984375t1.4287109375-0.5537109375q0.697265625,0,1.1484375,0.65625t0.7177734375,1.6748046875t0.3759765625,2.26953125t0.150390625,2.4541015625t0.0546875,2.1943359375t0.095703125,1.4970703125q0.0546875,0.423828125,0.1845703125,0.8955078125t0.1298828125,0.8681640625q0,0.109375-0.1572265625,0.2119140625t-0.3349609375,0.1708984375t-0.3623046875,0.109375t-0.2666015625,0.041015625q-0.533203125,0-0.7587890625-0.7998046875t-0.2802734375-2.0029296875t-0.0546875-2.6044921875t-0.095703125-2.6044921875t-0.3896484375-2.0029296875t-0.9365234375-0.8271484375q-0.587890625,0-1.216796875,0.7587890625t-1.080078125,2.0166015625q-0.4375,1.2578125-0.6015625,2.857421875q-0.0546875,0.505859375-0.0546875,1.01171875q0,1.107421875,0.232421875,2.21484375q0.02734375,0.19140625-0.1572265625,0.287109375t-0.4580078125,0.150390625t-0.5537109375,0.068359375t-0.4306640625,0.013671875q-0.533203125,0-0.8544921875-0.3759765625t-0.4990234375-0.9638671875t-0.2392578125-1.3193359375t-0.0751953125-1.4423828125z M43.0593359375,38.626953125q0-0.984375,0.2529296875-1.9755859375t0.7861328125-1.77734375t1.3603515625-1.2783203125t1.9482421875-0.4921875q0.478515625,0,1.052734375,0.1162109375t1.0595703125,0.369140625t0.8203125,0.65625t0.3349609375,0.9912109375q0,0.369140625-0.19140625,0.4921875t-0.505859375,0.123046875l-0.095703125-0.13671875t-0.2666015625-0.3486328125t-0.3623046875-0.451171875t-0.369140625-0.4033203125q-0.560546875-0.560546875-1.052734375-0.6015625l-0.109375,0q-0.41015625,0-0.765625,0.24609375q-0.396484375,0.30078125-0.7041015625,0.84765625t-0.5126953125,1.162109375t-0.3212890625,1.244140625t-0.1162109375,1.0390625q0,0.560546875,0.1298828125,1.2783203125t0.4375,1.3603515625t0.779296875,1.080078125t1.2099609375,0.4375q0.669921875,0,1.216796875-0.328125t1.0458984375-0.7314453125t0.9775390625-0.724609375t0.984375-0.3212890625q0.21875,0,0.4443359375,0.0546875t0.2255859375,0.287109375l0,0.08203125q-0.24609375,0.642578125-0.833984375,1.134765625t-1.3193359375,0.8544921875t-1.517578125,0.5400390625t-1.4013671875,0.177734375q-1.1484375,0-2.0166015625-0.3759765625t-1.4423828125-1.0322265625t-0.8681640625-1.5791015625t-0.2939453125-2.0166015625z M54.99037109375,39.4609375q0-0.95703125,0.2119140625-2.255859375t0.7177734375-2.4609375t1.3330078125-1.9755859375t2.0849609375-0.8134765625q1.17578125,0,1.763671875,0.6767578125t0.587890625,1.8251953125q0,0.751953125-0.2802734375,1.6474609375t-0.7998046875,1.6953125t-1.23046875,1.3330078125t-1.5859375,0.533203125l-0.35546875-0.02734375q0,0.369140625,0.109375,0.9912109375t0.3212890625,1.2373046875t0.546875,1.080078125t0.8134765625,0.46484375q0.697265625,0,1.33984375-0.560546875t1.216796875-1.244140625t1.06640625-1.244140625t0.90234375-0.560546875q0.21875,0,0.451171875,0.068359375t0.259765625,0.3828125q0,0.19140625-0.1025390625,0.314453125t-0.1845703125,0.2734375q-0.423828125,0.724609375-0.9228515625,1.380859375t-1.1279296875,1.189453125t-1.3740234375,0.8408203125t-1.6474609375,0.3076171875q-1.17578125,0-1.955078125-0.4169921875t-1.2578125-1.12109375t-0.6904296875-1.626953125t-0.2119140625-1.9345703125z M57.43763671875,38.421875l0.3828125,0.341796875q0.2734375,0.24609375,0.546875,0.109375t0.4921875-0.4990234375t0.4033203125-0.8955078125t0.328125-1.09375t0.2119140625-1.09375t0.068359375-0.888671875l0-0.46484375t-0.041015625-0.4921875t-0.1435546875-0.3896484375t-0.3212890625-0.1982421875q-0.068359375-0.013671875-0.123046875-0.013671875q-0.46484375,0-0.79296875,0.587890625q-0.35546875,0.65625-0.57421875,1.5927734375t-0.314453125,1.9208984375t-0.123046875,1.4765625z M66.42921875,38.96875l0-0.396484375q0-0.4921875,0.02734375-0.9296875q0.02734375-0.615234375,0.02734375-1.01171875q0-0.21875,0.02734375-0.4990234375t0.13671875-0.4443359375q0.13671875-0.13671875,0.3212890625-0.2802734375t0.4033203125-0.1435546875q0.697265625,0,1.09375,0.1572265625t0.423828125,0.6494140625l0.0546875,0.423828125q0.24609375-0.587890625,0.65625-1.4560546875t0.9501953125-1.654296875t1.216796875-1.33984375t1.4287109375-0.5537109375q0.697265625,0,1.1484375,0.65625t0.7177734375,1.6748046875t0.3759765625,2.26953125t0.150390625,2.4541015625t0.0546875,2.1943359375t0.095703125,1.4970703125q0.0546875,0.423828125,0.1845703125,0.8955078125t0.1298828125,0.8681640625q0,0.109375-0.1572265625,0.2119140625t-0.3349609375,0.1708984375t-0.3623046875,0.109375t-0.2666015625,0.041015625q-0.533203125,0-0.7587890625-0.7998046875t-0.2802734375-2.0029296875t-0.0546875-2.6044921875t-0.095703125-2.6044921875t-0.3896484375-2.0029296875t-0.9365234375-0.8271484375q-0.587890625,0-1.216796875,0.7587890625t-1.080078125,2.0166015625q-0.4375,1.2578125-0.6015625,2.857421875q-0.0546875,0.505859375-0.0546875,1.01171875q0,1.107421875,0.232421875,2.21484375q0.02734375,0.19140625-0.1572265625,0.287109375t-0.4580078125,0.150390625t-0.5537109375,0.068359375t-0.4306640625,0.013671875q-0.533203125,0-0.8544921875-0.3759765625t-0.4990234375-0.9638671875t-0.2392578125-1.3193359375t-0.0751953125-1.4423828125z M78.85244140625,35.373046875q0-0.560546875,0.328125-0.9638671875t0.7998046875-0.65625t1.0322265625-0.3759765625t1.0390625-0.123046875q0.369140625,0,0.984375,0.109375t1.203125,0.328125t1.0185546875,0.57421875t0.4306640625,0.833984375q0,0.21875-0.1640625,0.3896484375t-0.341796875,0.1708984375q-0.369140625,0-0.669921875-0.2392578125t-0.6220703125-0.505859375t-0.7041015625-0.505859375t-0.861328125-0.2392578125t-0.8681640625,0.3076171875t-0.3896484375,0.8134765625q0,0.833984375,0.587890625,1.6337890625t1.2919921875,1.681640625t1.2919921875,1.8525390625t0.587890625,2.146484375q0,0.505859375-0.2119140625,0.8544921875t-0.560546875,0.5673828125t-0.7861328125,0.3349609375t-0.84765625,0.1162109375q-0.451171875,0-1.052734375-0.2119140625t-1.134765625-0.560546875t-0.8955078125-0.8134765625t-0.3623046875-0.970703125q0-0.24609375,0.3486328125-0.314453125t0.5126953125-0.068359375q0.08203125,0,0.2529296875,0.0546875t0.3349609375,0.123046875t0.2939453125,0.150390625t0.1025390625,0.177734375q0.13671875,0.1640625,0.4169921875,0.4853515625t0.560546875,0.51953125t0.4921875,0.1435546875t0.2119140625-0.615234375q0-1.06640625-0.57421875-1.9619140625t-1.2509765625-1.75t-1.2509765625-1.6953125t-0.57421875-1.7978515625z M88.2131640625,39.16015625q0-0.779296875,0.1982421875-1.6064453125t0.62890625-1.490234375t1.0869140625-1.080078125t1.5859375-0.4169921875q0.697265625,0,1.4697265625,0.2392578125t1.4150390625,0.68359375t1.0458984375,1.0869140625t0.4033203125,1.435546875q0,0.95703125-0.3486328125,1.818359375t-0.9775390625,1.5380859375t-1.4697265625,1.06640625t-1.8251953125,0.3896484375q-0.806640625,0-1.408203125-0.2939453125t-1.0048828125-0.7861328125t-0.6015625-1.162109375t-0.1982421875-1.421875z M90.2229296875,39.1328125q0,0.24609375,0.0751953125,0.724609375t0.2255859375,0.9365234375t0.3896484375,0.79296875t0.5810546875,0.3076171875q0.724609375-0.08203125,1.1962890625-0.4716796875t0.765625-0.9501953125t0.41015625-1.216796875t0.1162109375-1.244140625q0-0.751953125-0.2939453125-1.2578125t-0.9638671875-0.8203125q0,0.02734375,0.02734375,0.02734375t0.02734375-0.02734375l-0.341796875-0.08203125q-0.13671875-0.0546875-0.3349609375-0.123046875t-0.3896484375-0.30078125q-0.533203125,0.19140625-0.8271484375,0.4921875t-0.4443359375,0.7314453125t-0.1845703125,1.0322265625t-0.0341796875,1.44921875z M98.57193359375,35.072265625q0-0.560546875,0.1982421875-0.943359375t0.8408203125-0.3828125q0.24609375,0,0.615234375,0.0751953125t0.423828125,0.3759765625q0.13671875,0.806640625,0.150390625,1.75t0.095703125,1.77734375q0.314453125-0.615234375,0.806640625-1.326171875t1.12109375-1.3125t1.3671875-0.998046875t1.50390625-0.396484375q0.0546875,0,0.205078125,0.041015625t0.2802734375,0.1162109375t0.1572265625,0.1708984375t-0.150390625,0.177734375q-0.0546875,0.1640625-0.232421875,0.1982421875t-0.314453125,0.0341796875q-0.08203125,0-0.259765625-0.068359375q-1.01171875,0.533203125-1.72265625,1.44921875t-1.162109375,2.0302734375t-0.65625,2.3515625t-0.205078125,2.4130859375q0,0.587890625-0.2666015625,0.7109375t-0.8544921875,0.123046875q-0.314453125,0-0.6630859375-0.068359375t-0.4853515625-0.4375q-0.24609375-0.779296875-0.4033203125-1.791015625t-0.2392578125-2.0849609375t-0.1162109375-2.1123046875t-0.0341796875-1.873046875z M108.288125,39.4609375q0-0.95703125,0.2119140625-2.255859375t0.7177734375-2.4609375t1.3330078125-1.9755859375t2.0849609375-0.8134765625q1.17578125,0,1.763671875,0.6767578125t0.587890625,1.8251953125q0,0.751953125-0.2802734375,1.6474609375t-0.7998046875,1.6953125t-1.23046875,1.3330078125t-1.5859375,0.533203125l-0.35546875-0.02734375q0,0.369140625,0.109375,0.9912109375t0.3212890625,1.2373046875t0.546875,1.080078125t0.8134765625,0.46484375q0.697265625,0,1.33984375-0.560546875t1.216796875-1.244140625t1.06640625-1.244140625t0.90234375-0.560546875q0.21875,0,0.451171875,0.068359375t0.259765625,0.3828125q0,0.19140625-0.1025390625,0.314453125t-0.1845703125,0.2734375q-0.423828125,0.724609375-0.9228515625,1.380859375t-1.1279296875,1.189453125t-1.3740234375,0.8408203125t-1.6474609375,0.3076171875q-1.17578125,0-1.955078125-0.4169921875t-1.2578125-1.12109375t-0.6904296875-1.626953125t-0.2119140625-1.9345703125z M110.735390625,38.421875l0.3828125,0.341796875q0.2734375,0.24609375,0.546875,0.109375t0.4921875-0.4990234375t0.4033203125-0.8955078125t0.328125-1.09375t0.2119140625-1.09375t0.068359375-0.888671875l0-0.46484375t-0.041015625-0.4921875t-0.1435546875-0.3896484375t-0.3212890625-0.1982421875q-0.068359375-0.013671875-0.123046875-0.013671875q-0.46484375,0-0.79296875,0.587890625q-0.35546875,0.65625-0.57421875,1.5927734375t-0.314453125,1.9208984375t-0.123046875,1.4765625z M119.71330078125,38.736328125q0-1.06640625,0.2255859375-1.9345703125t0.7177734375-1.4697265625t1.2919921875-0.9365234375t1.9482421875-0.3349609375q0.642578125,0,1.3125,0.1708984375t1.1484375,0.6357421875q0-0.2734375,0.0546875-1.1279296875t0.13671875-1.9892578125t0.1708984375-2.37890625t0.1572265625-2.310546875t0.123046875-1.791015625t0.08203125-0.8203125q0.13671875-0.396484375,0.505859375-0.4716796875t0.697265625-0.0751953125q0.861328125,0,1.0595703125,0.2734375t0.1982421875,1.09375q0,2.994140625-0.2666015625,5.9609375t-0.2666015625,5.9609375q0,1.927734375,0.0751953125,3.8759765625t0.5400390625,3.8349609375l0.150390625,0.13671875l0.08203125,0.24609375l-0.205078125,0.314453125q-0.51953125,0.328125-1.203125,0.328125l-0.0546875,0q-0.697265625,0-1.28515625-0.328125q-0.21875-0.13671875-0.3623046875-0.8134765625t-0.2255859375-1.490234375t-0.123046875-1.5654296875t-0.068359375-1.06640625q-0.478515625,1.09375-1.3056640625,1.8798828125t-2.0849609375,0.7861328125q-0.984375,0-1.61328125-0.423828125t-0.9775390625-1.080078125t-0.4921875-1.4697265625t-0.1435546875-1.6201171875z M121.36759765625,38.818359375q0,0.314453125,0.0751953125,0.9296875t0.2392578125,1.23046875t0.4580078125,1.09375t0.7724609375,0.478515625q0.642578125-0.314453125,1.162109375-1.0458984375t0.8955078125-1.61328125t0.587890625-1.763671875t0.2119140625-1.5244140625q0-0.806640625-0.587890625-1.33984375t-1.408203125-0.533203125q-0.24609375,0-0.4990234375,0.095703125t-0.4716796875,0.21875q-0.505859375,0.478515625-0.7861328125,0.8681640625t-0.423828125,0.806640625t-0.1845703125,0.9228515625t-0.041015625,1.17578125z"/><path fill="#c73232" d="M137.72124023438,24.512939453125q-0.035400390625-0.431884765625,0.056640625-0.75048828125t0.3681640625-0.52392578125t0.885009765625-0.205322265625l2.27978515625,0q0.46728515625,0,1.224853515625,0.049560546875t1.62841796875,0.148681640625t1.734619140625,0.304443359375t1.578857421875,0.509765625t1.1611328125,0.75048828125t0.446044921875,1.054931640625q0,0.86376953125-0.502685546875,1.621337890625t-1.26025390625,1.366455078125t-1.60009765625,1.083251953125t-1.508056640625,0.856689453125q2.6337890625,0.58056640625,4.12060546875,2.4072265625t1.48681640625,4.5595703125q0,1.4443359375-0.55224609375,2.853271484375t-1.508056640625,2.541748046875t-2.265625,1.82666015625t-2.810791015625,0.69384765625q-0.1982421875,0-0.446044921875-0.04248046875t-0.453125-0.134521484375t-0.35400390625-0.261962890625t-0.148681640625-0.43896484375q0-1.24609375,1.34521484375-1.24609375q0.2265625,0,0.531005859375,0.063720703125t0.474365234375,0.261962890625q0.77880859375-0.32568359375,1.423095703125-1.03369140625t1.09033203125-1.578857421875t0.69384765625-1.82666015625t0.247802734375-1.734619140625q0-0.9345703125-0.276123046875-1.904541015625t-0.800048828125-1.79833984375t-1.28857421875-1.394775390625t-1.755859375-0.7080078125q-0.2548828125-0.0283203125-0.559326171875-0.04248046875l-0.60888671875-0.0283203125t-0.5947265625-0.0849609375t-0.502685546875-0.2265625q0.11328125,2.3505859375,0.290283203125,4.68701171875t0.474365234375,4.68701171875q0.11328125,0.11328125,0.15576171875,0.332763671875t0.07080078125,0.46728515625t0.0283203125,0.474365234375l0,0.38232421875q0,0.2548828125-0.169921875,0.417724609375t-0.403564453125,0.261962890625t-0.49560546875,0.12744140625t-0.460205078125,0.0283203125q-0.63720703125,0-0.97705078125-0.169921875t-0.4814453125-0.49560546875t-0.18408203125-0.743408203125t-0.07080078125-0.913330078125q-0.38232421875-3.95068359375-0.55224609375-7.81640625t-0.169921875-7.81640625q0-0.46728515625-0.035400390625-0.899169921875z M140.3337890625,23.9111328125q0,1.74169921875,0.11328125,3.490478515625t0.1982421875,3.490478515625q0.63720703125-0.38232421875,1.6708984375-0.899169921875t2.003662109375-1.139892578125t1.663818359375-1.37353515625t0.69384765625-1.62841796875q0-0.69384765625-0.8212890625-1.054931640625t-1.91162109375-0.5380859375t-2.131103515625-0.219482421875t-1.479736328125-0.12744140625z M152.70509277344,38.87841796875q0-1.302734375,0.304443359375-2.555908203125t0.516845703125-2.499267578125q0.056640625-0.32568359375,0.446044921875-0.403564453125t0.658447265625-0.077880859375q0.46728515625,0,0.75048828125,0.1416015625q0.11328125,0.056640625,0.21240234375,0.12744140625t0.09912109375,0.18408203125q0,1.2177734375-0.290283203125,2.37890625t-0.290283203125,2.4638671875q0,0.43896484375,0.063720703125,0.828369140625t0.120361328125,0.771728515625l0.0849609375,0.41064453125q0,0.11328125,0.01416015625,0.1982421875t0.04248046875,0.1982421875q0,0.2548828125-0.361083984375,0.346923828125t-0.630126953125,0.092041015625q-0.41064453125,0-0.757568359375-0.162841796875t-0.545166015625-0.559326171875l-0.1982421875-0.41064453125q-0.169921875-0.32568359375-0.169921875-0.729248046875t-0.07080078125-0.743408203125z M153.61134277344,30.35400390625l0-0.26904296875q0-0.66552734375,0.332763671875-1.189453125t0.998291015625-0.52392578125q0.0849609375,0,0.162841796875,0.01416015625t0.162841796875,0.01416015625q0.169921875,0.0283203125,0.446044921875,0.134521484375t0.276123046875,0.332763671875l0,0.0283203125q-0.056640625,0.11328125-0.07080078125,0.233642578125t-0.07080078125,0.205322265625l0.0283203125-0.0283203125q-0.169921875,0.43896484375-0.276123046875,0.7080078125t-0.233642578125,0.431884765625t-0.318603515625,0.233642578125t-0.545166015625,0.07080078125q-0.056640625,0-0.1982421875-0.01416015625t-0.304443359375-0.056640625t-0.276123046875-0.11328125t-0.11328125-0.21240234375z M158.30784179688,30.2265625q0-0.1982421875,0.4248046875-0.33984375t0.962890625-0.233642578125t1.040771484375-0.134521484375t0.686767578125-0.07080078125q0-0.38232421875,0.0283203125-0.771728515625t0.15576171875-0.69384765625t0.403564453125-0.488525390625t0.771728515625-0.18408203125q0.41064453125,0,0.623046875,0.09912109375t0.453125,0.41064453125q0.056640625,0.169921875,0.056640625,0.32568359375l0,0.474365234375t-0.0283203125,0.488525390625q0.52392578125-0.056640625,1.040771484375-0.134521484375t1.040771484375-0.077880859375q0.38232421875,0,0.52392578125,0.01416015625t0.283203125,0.33984375q0.11328125,0.32568359375-0.276123046875,0.49560546875t-0.9345703125,0.2548828125t-1.083251953125,0.12744140625t-0.6513671875,0.04248046875q-0.169921875,2.435546875-0.346923828125,4.82861328125t-0.177001953125,4.85693359375q0,1.1044921875,0.07080078125,2.27978515625t0.396484375,2.22314453125q0.0849609375,0.32568359375,0.283203125,0.60888671875t0.1982421875,0.60888671875q0,0.1982421875-0.15576171875,0.3115234375t-0.375244140625,0.191162109375t-0.43896484375,0.092041015625t-0.361083984375,0.01416015625q-0.89208984375,0-1.359375-0.66552734375t-0.672607421875-1.593017578125t-0.219482421875-1.904541015625t-0.01416015625-1.5859375q0-1.24609375,0.049560546875-2.548828125t0.120361328125-2.5771484375t0.1982421875-2.4921875t0.29736328125-2.265625q-0.49560546875,0.056640625-0.969970703125,0.12744140625t-0.969970703125,0.07080078125q-0.11328125,0-0.304443359375-0.01416015625t-0.361083984375-0.07080078125t-0.290283203125-0.15576171875t-0.120361328125-0.283203125z M169.13568847656,38.93505859375q0-1.01953125,0.261962890625-2.046142578125t0.814208984375-1.8408203125t1.408935546875-1.323974609375t2.017822265625-0.509765625q0.49560546875,0,1.09033203125,0.120361328125t1.097412109375,0.38232421875t0.849609375,0.6796875t0.346923828125,1.026611328125q0,0.38232421875-0.1982421875,0.509765625t-0.52392578125,0.12744140625l-0.09912109375-0.1416015625t-0.276123046875-0.361083984375t-0.375244140625-0.46728515625t-0.38232421875-0.417724609375q-0.58056640625-0.58056640625-1.09033203125-0.623046875l-0.11328125,0q-0.4248046875,0-0.79296875,0.2548828125q-0.41064453125,0.3115234375-0.729248046875,0.8779296875t-0.531005859375,1.20361328125t-0.332763671875,1.28857421875t-0.120361328125,1.076171875q0,0.58056640625,0.134521484375,1.323974609375t0.453125,1.408935546875t0.80712890625,1.11865234375t1.253173828125,0.453125q0.69384765625,0,1.26025390625-0.33984375t1.083251953125-0.757568359375t1.012451171875-0.75048828125t1.01953125-0.332763671875q0.2265625,0,0.460205078125,0.056640625t0.233642578125,0.29736328125l0,0.0849609375q-0.2548828125,0.66552734375-0.86376953125,1.17529296875t-1.366455078125,0.885009765625t-1.57177734375,0.559326171875t-1.451416015625,0.18408203125q-1.189453125,0-2.088623046875-0.389404296875t-1.493896484375-1.069091796875t-0.899169921875-1.635498046875t-0.304443359375-2.088623046875z M181.49283203125,40.76171875l0-1.3310546875q0-0.72216796875,0.035400390625-2.046142578125t0.092041015625-2.90283203125t0.15576171875-3.292236328125t0.2265625-3.235595703125t0.304443359375-2.725830078125t0.403564453125-1.7841796875q0.1416015625-0.32568359375,0.46728515625-0.41064453125t0.63720703125-0.0849609375q0.49560546875,0,0.870849609375,0.219482421875t0.375244140625,0.800048828125l-0.2548828125,0.283203125q-0.49560546875,3.27099609375-0.63720703125,6.5703125t-0.1982421875,6.5986328125q0.35400390625-0.55224609375,0.800048828125-1.083251953125t0.9912109375-0.941650390625t1.17529296875-0.658447265625t1.380615234375-0.247802734375q0.962890625,0,1.593017578125,0.58056640625t1.040771484375,1.508056640625t0.60888671875,2.074462890625t0.304443359375,2.2939453125t0.148681640625,2.173583984375t0.12744140625,1.706298828125q-0.26904296875,0.3681640625-0.79296875,0.3681640625l-0.04248046875,0q-0.2265625,0-0.49560546875-0.056640625t-0.35400390625-0.283203125l0.0283203125,0.0283203125q-0.1982421875-0.43896484375-0.26904296875-1.267333984375t-0.11328125-1.82666015625t-0.148681640625-2.046142578125t-0.318603515625-1.8974609375t-0.623046875-1.40185546875t-1.1044921875-0.58056640625l-0.0849609375,0q-0.83544921875,0-1.40185546875,0.509765625q-0.5947265625,0.5380859375-0.962890625,1.416015625t-0.56640625,1.9541015625t-0.304443359375,2.074462890625t-0.162841796875,1.8125t-0.1416015625,1.196533203125q-0.0849609375,0.32568359375-0.502685546875,0.431884765625t-0.715087890625,0.106201171875q-0.69384765625,0-1.1328125-0.396484375q-0.32568359375-0.77880859375-0.38232421875-1.93994140625t-0.056640625-2.265625z M195.03942871094,38.87841796875q0-1.302734375,0.304443359375-2.555908203125t0.516845703125-2.499267578125q0.056640625-0.32568359375,0.446044921875-0.403564453125t0.658447265625-0.077880859375q0.46728515625,0,0.75048828125,0.1416015625q0.11328125,0.056640625,0.21240234375,0.12744140625t0.09912109375,0.18408203125q0,1.2177734375-0.290283203125,2.37890625t-0.290283203125,2.4638671875q0,0.43896484375,0.063720703125,0.828369140625t0.120361328125,0.771728515625l0.0849609375,0.41064453125q0,0.11328125,0.01416015625,0.1982421875t0.04248046875,0.1982421875q0,0.2548828125-0.361083984375,0.346923828125t-0.630126953125,0.092041015625q-0.41064453125,0-0.757568359375-0.162841796875t-0.545166015625-0.559326171875l-0.1982421875-0.41064453125q-0.169921875-0.32568359375-0.169921875-0.729248046875t-0.07080078125-0.743408203125z M195.94567871094,30.35400390625l0-0.26904296875q0-0.66552734375,0.332763671875-1.189453125t0.998291015625-0.52392578125q0.0849609375,0,0.162841796875,0.01416015625t0.162841796875,0.01416015625q0.169921875,0.0283203125,0.446044921875,0.134521484375t0.276123046875,0.332763671875l0,0.0283203125q-0.056640625,0.11328125-0.07080078125,0.233642578125t-0.07080078125,0.205322265625l0.0283203125-0.0283203125q-0.169921875,0.43896484375-0.276123046875,0.7080078125t-0.233642578125,0.431884765625t-0.318603515625,0.233642578125t-0.545166015625,0.07080078125q-0.056640625,0-0.1982421875-0.01416015625t-0.304443359375-0.056640625t-0.276123046875-0.11328125t-0.11328125-0.21240234375z M201.23690429688,39.2890625l0-0.41064453125q0-0.509765625,0.0283203125-0.962890625q0.0283203125-0.63720703125,0.0283203125-1.0478515625q0-0.2265625,0.0283203125-0.516845703125t0.1416015625-0.460205078125q0.1416015625-0.1416015625,0.332763671875-0.290283203125t0.417724609375-0.148681640625q0.72216796875,0,1.1328125,0.162841796875t0.43896484375,0.672607421875l0.056640625,0.43896484375q0.2548828125-0.60888671875,0.6796875-1.508056640625t0.984130859375-1.71337890625t1.26025390625-1.3876953125t1.479736328125-0.573486328125q0.72216796875,0,1.189453125,0.6796875t0.743408203125,1.734619140625t0.389404296875,2.3505859375t0.15576171875,2.541748046875t0.056640625,2.272705078125t0.09912109375,1.550537109375q0.056640625,0.43896484375,0.191162109375,0.927490234375t0.134521484375,0.899169921875q0,0.11328125-0.162841796875,0.219482421875t-0.346923828125,0.177001953125t-0.375244140625,0.11328125t-0.276123046875,0.04248046875q-0.55224609375,0-0.785888671875-0.828369140625t-0.290283203125-2.074462890625t-0.056640625-2.697509765625t-0.09912109375-2.697509765625t-0.403564453125-2.074462890625t-0.969970703125-0.856689453125q-0.60888671875,0-1.26025390625,0.785888671875t-1.11865234375,2.088623046875q-0.453125,1.302734375-0.623046875,2.95947265625q-0.056640625,0.52392578125-0.056640625,1.0478515625q0,1.14697265625,0.24072265625,2.2939453125q0.0283203125,0.1982421875-0.162841796875,0.29736328125t-0.474365234375,0.15576171875t-0.573486328125,0.07080078125t-0.446044921875,0.01416015625q-0.55224609375,0-0.885009765625-0.389404296875t-0.516845703125-0.998291015625t-0.247802734375-1.366455078125t-0.077880859375-1.493896484375z M219.6216015625,39.21826171875q0-0.962890625,0.261962890625-1.85498046875t0.785888671875-1.593017578125t1.309814453125-1.11865234375t1.819580078125-0.417724609375q0.63720703125,0,1.408935546875,0.191162109375t1.451416015625,0.56640625t1.1328125,0.955810546875t0.453125,1.3310546875q0,0.35400390625-0.120361328125,0.5380859375t-0.488525390625,0.18408203125l-0.15576171875-0.0283203125q0.41064453125,1.1044921875,0.7080078125,2.265625t0.58056640625,2.322265625q0.11328125,0.2265625,0.169921875,0.403564453125t0.056640625,0.346923828125q0,0.2265625-0.12744140625,0.375244140625t-0.332763671875,0.219482421875t-0.4248046875,0.09912109375t-0.389404296875,0.0283203125q-0.60888671875,0-0.913330078125-0.21240234375t-0.43896484375-0.58056640625t-0.162841796875-0.828369140625t-0.11328125-0.927490234375q-0.169921875,0.55224609375-0.446044921875,1.076171875t-0.6513671875,0.941650390625t-0.885009765625,0.66552734375t-1.14697265625,0.247802734375q-0.9345703125,0-1.57177734375-0.5380859375t-1.026611328125-1.323974609375t-0.56640625-1.677978515625t-0.177001953125-1.65673828125z M221.63234375,39.02001953125q0,0.52392578125,0.07080078125,1.1044921875t0.233642578125,1.14697265625t0.417724609375,1.069091796875t0.63720703125,0.885009765625q0.69384765625-0.75048828125,1.026611328125-1.82666015625t0.5947265625-2.074462890625t0.5947265625-1.71337890625t1.026611328125-0.715087890625q0.43896484375,0,0.736328125,0.15576171875q-0.1416015625-0.35400390625-0.46728515625-0.686767578125t-0.729248046875-0.60888671875t-0.83544921875-0.453125t-0.814208984375-0.177001953125q-0.11328125,0-0.261962890625,0.035400390625t-0.233642578125,0.007080078125q-0.58056640625,0.169921875-0.955810546875,0.587646484375t-0.60888671875,0.984130859375t-0.332763671875,1.1611328125t-0.09912109375,1.11865234375z M231.89378417969,35.09765625q0-0.9912109375,0.092041015625-2.5771484375t0.219482421875-3.27099609375t0.318603515625-3.193115234375t0.417724609375-2.315185546875q0.0849609375-0.35400390625,0.403564453125-0.4248046875t0.644287109375-0.07080078125q0.43896484375,0,0.757568359375,0.15576171875t0.318603515625,0.6796875q0,2.5771484375-0.318603515625,5.161376953125t-0.346923828125,5.161376953125q0.43896484375-0.66552734375,1.1328125-0.998291015625t1.47265625-0.332763671875q1.076171875,0,1.85498046875,0.43896484375t1.26025390625,1.1328125t0.715087890625,1.607177734375t0.233642578125,1.862060546875q0,0.52392578125-0.106201171875,1.309814453125t-0.318603515625,1.65673828125t-0.5380859375,1.7275390625t-0.771728515625,1.536376953125t-1.026611328125,1.097412109375t-1.2744140625,0.417724609375q-0.1416015625,0-0.375244140625-0.04248046875t-0.46728515625-0.12744140625t-0.389404296875-0.219482421875t-0.15576171875-0.332763671875q0-0.2265625,0.276123046875-0.318603515625t0.446044921875-0.092041015625q0.63720703125-0.283203125,1.1328125-1.182373046875t0.828369140625-1.975341796875t0.502685546875-2.131103515625t0.169921875-1.720458984375q0-0.38232421875-0.11328125-1.01953125t-0.346923828125-1.26025390625t-0.63720703125-1.076171875t-0.955810546875-0.453125q-0.66552734375,0-1.06201171875,0.686767578125t-0.623046875,1.60009765625t-0.304443359375,1.88330078125t-0.077880859375,1.522216796875q0,0.35400390625,0.120361328125,0.700927734375t0.276123046875,0.69384765625t0.276123046875,0.7080078125t0.120361328125,0.715087890625q0,0.169921875-0.148681640625,0.283203125t-0.346923828125,0.18408203125t-0.417724609375,0.092041015625t-0.332763671875,0.021240234375q-0.80712890625,0-1.11865234375-0.38232421875t-0.5380859375-1.076171875q-0.49560546875-1.57177734375-0.686767578125-3.193115234375t-0.191162109375-3.249755859375z M243.68452148437,39.4873046875q0-0.80712890625,0.205322265625-1.663818359375t0.6513671875-1.54345703125t1.125732421875-1.11865234375t1.642578125-0.431884765625q0.72216796875,0,1.522216796875,0.247802734375t1.465576171875,0.7080078125t1.083251953125,1.125732421875t0.417724609375,1.48681640625q0,0.9912109375-0.361083984375,1.88330078125t-1.012451171875,1.593017578125t-1.522216796875,1.1044921875t-1.890380859375,0.403564453125q-0.83544921875,0-1.45849609375-0.304443359375t-1.040771484375-0.814208984375t-0.623046875-1.20361328125t-0.205322265625-1.47265625z M245.76606445312,39.458984375q0,0.2548828125,0.077880859375,0.75048828125t0.233642578125,0.969970703125t0.403564453125,0.8212890625t0.601806640625,0.318603515625q0.75048828125-0.0849609375,1.239013671875-0.488525390625t0.79296875-0.984130859375t0.4248046875-1.26025390625t0.120361328125-1.28857421875q0-0.77880859375-0.304443359375-1.302734375t-0.998291015625-0.849609375q0,0.0283203125,0.0283203125,0.0283203125t0.0283203125-0.0283203125l-0.35400390625-0.0849609375q-0.1416015625-0.056640625-0.346923828125-0.12744140625t-0.403564453125-0.3115234375q-0.55224609375,0.1982421875-0.856689453125,0.509765625t-0.460205078125,0.757568359375t-0.191162109375,1.069091796875t-0.035400390625,1.5009765625z M253.83268066406,37.97216796875q0-0.283203125,0.063720703125-0.75048828125t0.148681640625-0.927490234375t0.1982421875-0.856689453125t0.26904296875-0.509765625q0.11328125-0.11328125,0.389404296875-0.2265625t0.58056640625-0.162841796875t0.56640625,0.04248046875t0.318603515625,0.375244140625q-0.1982421875,0.2548828125-0.361083984375,0.870849609375t-0.247802734375,1.366455078125q-0.07080078125,0.63720703125-0.07080078125,1.31689453125l0,0.24072265625q0.01416015625,0.79296875,0.1416015625,1.45849609375t0.389404296875,1.097412109375t0.729248046875,0.431884765625q0.9912109375,0,1.8125-0.913330078125t1.45849609375-2.230224609375t1.11865234375-2.796630859375t0.8212890625-2.584228515625q0.0849609375-0.32568359375,0.403564453125-0.43896484375t0.686767578125-0.077880859375t0.658447265625,0.177001953125t0.346923828125,0.33984375q-0.283203125,2.37890625-0.446044921875,4.7578125t-0.162841796875,4.7861328125q0,0.46728515625,0.04248046875,0.856689453125t-0.04248046875,0.66552734375t-0.375244140625,0.43896484375t-0.927490234375,0.162841796875q-0.1416015625,0-0.361083984375-0.0283203125t-0.453125-0.092041015625t-0.396484375-0.191162109375t-0.162841796875-0.29736328125q0-1.0478515625,0.077880859375-2.15234375t0.219482421875-2.13818359375q-0.38232421875,0.55224609375-0.842529296875,1.097412109375t-1.012451171875,0.984130859375t-1.189453125,0.700927734375t-1.37353515625,0.261962890625q-1.0478515625,0-1.649658203125-0.49560546875t-0.90625-1.239013671875t-0.38232421875-1.621337890625t-0.077880859375-1.69921875z M266.5721484375,30.2265625q0-0.1982421875,0.4248046875-0.33984375t0.962890625-0.233642578125t1.040771484375-0.134521484375t0.686767578125-0.07080078125q0-0.38232421875,0.0283203125-0.771728515625t0.15576171875-0.69384765625t0.403564453125-0.488525390625t0.771728515625-0.18408203125q0.41064453125,0,0.623046875,0.09912109375t0.453125,0.41064453125q0.056640625,0.169921875,0.056640625,0.32568359375l0,0.474365234375t-0.0283203125,0.488525390625q0.52392578125-0.056640625,1.040771484375-0.134521484375t1.040771484375-0.077880859375q0.38232421875,0,0.52392578125,0.01416015625t0.283203125,0.33984375q0.11328125,0.32568359375-0.276123046875,0.49560546875t-0.9345703125,0.2548828125t-1.083251953125,0.12744140625t-0.6513671875,0.04248046875q-0.169921875,2.435546875-0.346923828125,4.82861328125t-0.177001953125,4.85693359375q0,1.1044921875,0.07080078125,2.27978515625t0.396484375,2.22314453125q0.0849609375,0.32568359375,0.283203125,0.60888671875t0.1982421875,0.60888671875q0,0.1982421875-0.15576171875,0.3115234375t-0.375244140625,0.191162109375t-0.43896484375,0.092041015625t-0.361083984375,0.01416015625q-0.89208984375,0-1.359375-0.66552734375t-0.672607421875-1.593017578125t-0.219482421875-1.904541015625t-0.01416015625-1.5859375q0-1.24609375,0.049560546875-2.548828125t0.120361328125-2.5771484375t0.1982421875-2.4921875t0.29736328125-2.265625q-0.49560546875,0.056640625-0.969970703125,0.12744140625t-0.969970703125,0.07080078125q-0.11328125,0-0.304443359375-0.01416015625t-0.361083984375-0.07080078125t-0.290283203125-0.15576171875t-0.120361328125-0.283203125z M282.91778320312,35.56494140625q0-0.58056640625,0.33984375-0.998291015625t0.828369140625-0.6796875t1.069091796875-0.389404296875t1.076171875-0.12744140625q0.38232421875,0,1.01953125,0.11328125t1.24609375,0.33984375t1.054931640625,0.5947265625t0.446044921875,0.86376953125q0,0.2265625-0.169921875,0.403564453125t-0.35400390625,0.177001953125q-0.38232421875,0-0.69384765625-0.247802734375t-0.644287109375-0.52392578125t-0.729248046875-0.52392578125t-0.89208984375-0.247802734375t-0.899169921875,0.318603515625t-0.403564453125,0.842529296875q0,0.86376953125,0.60888671875,1.692138671875t1.338134765625,1.74169921875t1.338134765625,1.918701171875t0.60888671875,2.22314453125q0,0.52392578125-0.219482421875,0.885009765625t-0.58056640625,0.587646484375t-0.814208984375,0.346923828125t-0.8779296875,0.120361328125q-0.46728515625,0-1.09033203125-0.219482421875t-1.17529296875-0.58056640625t-0.927490234375-0.842529296875t-0.375244140625-1.00537109375q0-0.2548828125,0.361083984375-0.32568359375t0.531005859375-0.07080078125q0.0849609375,0,0.261962890625,0.056640625t0.346923828125,0.12744140625t0.304443359375,0.15576171875t0.106201171875,0.18408203125q0.1416015625,0.169921875,0.431884765625,0.502685546875t0.58056640625,0.5380859375t0.509765625,0.148681640625t0.219482421875-0.63720703125q0-1.1044921875-0.5947265625-2.031982421875t-1.295654296875-1.8125t-1.295654296875-1.755859375t-0.5947265625-1.862060546875z M292.31545410156,30.2265625q0-0.1982421875,0.4248046875-0.33984375t0.962890625-0.233642578125t1.040771484375-0.134521484375t0.686767578125-0.07080078125q0-0.38232421875,0.0283203125-0.771728515625t0.15576171875-0.69384765625t0.403564453125-0.488525390625t0.771728515625-0.18408203125q0.41064453125,0,0.623046875,0.09912109375t0.453125,0.41064453125q0.056640625,0.169921875,0.056640625,0.32568359375l0,0.474365234375t-0.0283203125,0.488525390625q0.52392578125-0.056640625,1.040771484375-0.134521484375t1.040771484375-0.077880859375q0.38232421875,0,0.52392578125,0.01416015625t0.283203125,0.33984375q0.11328125,0.32568359375-0.276123046875,0.49560546875t-0.9345703125,0.2548828125t-1.083251953125,0.12744140625t-0.6513671875,0.04248046875q-0.169921875,2.435546875-0.346923828125,4.82861328125t-0.177001953125,4.85693359375q0,1.1044921875,0.07080078125,2.27978515625t0.396484375,2.22314453125q0.0849609375,0.32568359375,0.283203125,0.60888671875t0.1982421875,0.60888671875q0,0.1982421875-0.15576171875,0.3115234375t-0.375244140625,0.191162109375t-0.43896484375,0.092041015625t-0.361083984375,0.01416015625q-0.89208984375,0-1.359375-0.66552734375t-0.672607421875-1.593017578125t-0.219482421875-1.904541015625t-0.01416015625-1.5859375q0-1.24609375,0.049560546875-2.548828125t0.120361328125-2.5771484375t0.1982421875-2.4921875t0.29736328125-2.265625q-0.49560546875,0.056640625-0.969970703125,0.12744140625t-0.969970703125,0.07080078125q-0.11328125,0-0.304443359375-0.01416015625t-0.361083984375-0.07080078125t-0.290283203125-0.15576171875t-0.120361328125-0.283203125z M302.562734375,37.97216796875q0-0.283203125,0.063720703125-0.75048828125t0.148681640625-0.927490234375t0.1982421875-0.856689453125t0.26904296875-0.509765625q0.11328125-0.11328125,0.389404296875-0.2265625t0.58056640625-0.162841796875t0.56640625,0.04248046875t0.318603515625,0.375244140625q-0.1982421875,0.2548828125-0.361083984375,0.870849609375t-0.247802734375,1.366455078125q-0.07080078125,0.63720703125-0.07080078125,1.31689453125l0,0.24072265625q0.01416015625,0.79296875,0.1416015625,1.45849609375t0.389404296875,1.097412109375t0.729248046875,0.431884765625q0.9912109375,0,1.8125-0.913330078125t1.45849609375-2.230224609375t1.11865234375-2.796630859375t0.8212890625-2.584228515625q0.0849609375-0.32568359375,0.403564453125-0.43896484375t0.686767578125-0.077880859375t0.658447265625,0.177001953125t0.346923828125,0.33984375q-0.283203125,2.37890625-0.446044921875,4.7578125t-0.162841796875,4.7861328125q0,0.46728515625,0.04248046875,0.856689453125t-0.04248046875,0.66552734375t-0.375244140625,0.43896484375t-0.927490234375,0.162841796875q-0.1416015625,0-0.361083984375-0.0283203125t-0.453125-0.092041015625t-0.396484375-0.191162109375t-0.162841796875-0.29736328125q0-1.0478515625,0.077880859375-2.15234375t0.219482421875-2.13818359375q-0.38232421875,0.55224609375-0.842529296875,1.097412109375t-1.012451171875,0.984130859375t-1.189453125,0.700927734375t-1.37353515625,0.261962890625q-1.0478515625,0-1.649658203125-0.49560546875t-0.90625-1.239013671875t-0.38232421875-1.621337890625t-0.077880859375-1.69921875z M315.88276855469,33.29931640625q0-0.1416015625,0.219482421875-0.24072265625t0.52392578125-0.1416015625t0.58056640625-0.07080078125t0.417724609375-0.0283203125q0.056640625-0.38232421875,0.162841796875-1.03369140625t0.261962890625-1.394775390625t0.389404296875-1.493896484375t0.56640625-1.359375t0.785888671875-0.998291015625t1.06201171875-0.389404296875l-0.0283203125,0q0.1982421875-0.0283203125,0.389404296875-0.04248046875t0.389404296875-0.01416015625q0.46728515625,0,1.012451171875,0.18408203125t1.012451171875,0.516845703125t0.785888671875,0.800048828125t0.318603515625,0.9912109375q0,0.41064453125-0.205322265625,0.885009765625t-0.715087890625,0.474365234375q-0.169921875,0-0.346923828125-0.0849609375t-0.332763671875-0.18408203125q0.056640625-0.32568359375,0.056640625-0.6513671875q0-0.169921875-0.01416015625-0.32568359375q-0.04248046875-0.49560546875-0.21240234375-0.870849609375t-0.488525390625-0.5947265625t-0.757568359375-0.162841796875q-0.58056640625,0.0849609375-0.870849609375,0.7080078125t-0.403564453125,1.479736328125t-0.1416015625,1.74169921875t-0.11328125,1.437255859375q0.66552734375,0.056640625,1.125732421875,0.056640625l1.154052734375,0q0.11328125,0,0.389404296875,0.01416015625t0.5380859375,0.056640625t0.46728515625,0.148681640625t0.205322265625,0.276123046875q0,0.1416015625-0.11328125,0.247802734375t-0.276123046875,0.148681640625t-0.33984375,0.056640625t-0.290283203125,0.01416015625q-0.49560546875,0-0.842529296875-0.04248046875t-0.66552734375-0.077880859375t-0.66552734375-0.035400390625t-0.814208984375,0.09912109375q-0.1416015625,1.57177734375-0.2265625,3.115234375t-0.0849609375,3.115234375q0,2.4638671875,0.15576171875,4.82861328125t0.56640625,4.80029296875q0.056640625,0.2265625,0.09912109375,0.516845703125t0.04248046875,0.559326171875q0,0.2548828125-0.15576171875,0.417724609375t-0.389404296875,0.233642578125t-0.4814453125,0.09912109375t-0.446044921875,0.0283203125q-0.80712890625,0-1.1328125-0.247802734375t-0.46728515625-0.998291015625q-0.35400390625-1.99658203125-0.453125-4.028564453125t-0.09912109375-4.099365234375q0-2.02490234375,0.148681640625-4.042724609375t0.375244140625-4.014404296875q-0.11328125,0-0.389404296875,0.01416015625t-0.55224609375,0t-0.4814453125-0.09912109375t-0.205322265625-0.29736328125z M326.32829101562,33.29931640625q0-0.1416015625,0.219482421875-0.24072265625t0.52392578125-0.1416015625t0.58056640625-0.07080078125t0.417724609375-0.0283203125q0.056640625-0.38232421875,0.162841796875-1.03369140625t0.261962890625-1.394775390625t0.389404296875-1.493896484375t0.56640625-1.359375t0.785888671875-0.998291015625t1.06201171875-0.389404296875l-0.0283203125,0q0.1982421875-0.0283203125,0.389404296875-0.04248046875t0.389404296875-0.01416015625q0.46728515625,0,1.012451171875,0.18408203125t1.012451171875,0.516845703125t0.785888671875,0.800048828125t0.318603515625,0.9912109375q0,0.41064453125-0.205322265625,0.885009765625t-0.715087890625,0.474365234375q-0.169921875,0-0.346923828125-0.0849609375t-0.332763671875-0.18408203125q0.056640625-0.32568359375,0.056640625-0.6513671875q0-0.169921875-0.01416015625-0.32568359375q-0.04248046875-0.49560546875-0.21240234375-0.870849609375t-0.488525390625-0.5947265625t-0.757568359375-0.162841796875q-0.58056640625,0.0849609375-0.870849609375,0.7080078125t-0.403564453125,1.479736328125t-0.1416015625,1.74169921875t-0.11328125,1.437255859375q0.66552734375,0.056640625,1.125732421875,0.056640625l1.154052734375,0q0.11328125,0,0.389404296875,0.01416015625t0.5380859375,0.056640625t0.46728515625,0.148681640625t0.205322265625,0.276123046875q0,0.1416015625-0.11328125,0.247802734375t-0.276123046875,0.148681640625t-0.33984375,0.056640625t-0.290283203125,0.01416015625q-0.49560546875,0-0.842529296875-0.04248046875t-0.66552734375-0.077880859375t-0.66552734375-0.035400390625t-0.814208984375,0.09912109375q-0.1416015625,1.57177734375-0.2265625,3.115234375t-0.0849609375,3.115234375q0,2.4638671875,0.15576171875,4.82861328125t0.56640625,4.80029296875q0.056640625,0.2265625,0.09912109375,0.516845703125t0.04248046875,0.559326171875q0,0.2548828125-0.15576171875,0.417724609375t-0.389404296875,0.233642578125t-0.4814453125,0.09912109375t-0.446044921875,0.0283203125q-0.80712890625,0-1.1328125-0.247802734375t-0.46728515625-0.998291015625q-0.35400390625-1.99658203125-0.453125-4.028564453125t-0.09912109375-4.099365234375q0-2.02490234375,0.148681640625-4.042724609375t0.375244140625-4.014404296875q-0.11328125,0-0.389404296875,0.01416015625t-0.55224609375,0t-0.4814453125-0.09912109375t-0.205322265625-0.29736328125z"/></svg>
